<?xml version="1.0" standalone="no"?><!DOCTYPE svg PUBLIC "-//W3C//DTD SVG 1.1//EN" "http://www.w3.org/Graphics/SVG/1.1/DTD/svg11.dtd"><svg t="1606900673829" class="icon" viewBox="0 0 1024 1024" version="1.1" xmlns="http://www.w3.org/2000/svg" p-id="5351" xmlns:xlink="http://www.w3.org/1999/xlink" width="32" height="32"><defs><style type="text/css"></style></defs><path d="M835.8 220H188.2c-11.7 0-21.2 9.5-21.2 21.2v414.1c0 11.7 9.5 21.2 21.2 21.2h647.7c11.7 0 21.2-9.5 21.2-21.2V241.2c0-11.7-9.5-21.2-21.3-21.2z" fill="#3E4959" p-id="5352"></path><path d="M188.2 241.2h647.7v371.6H188.2z" fill="#D3E0EA" p-id="5353"></path><path d="M252.9 294.3h237.8v265.4H252.9zM524.7 294.3h206v88.1h-206zM524.7 413.3h206v146.5h-206z" fill="#FFFFFF" p-id="5354"></path><path d="M371.8 342.1c-46.9 0-84.9 38-84.9 84.9 0 46.9 38 84.9 84.9 84.9s84.9-38 84.9-84.9h-84.9v-84.9z" fill="#003DF0" p-id="5355"></path><path d="M382.5 331.5v84.9h84.9c0-46.9-38-84.9-84.9-84.9z" fill="#3A6EFF" p-id="5356"></path><path d="M587.8 371.5c-7.6 0-9.8-10.8-11.9-21.3-2.1-10.7-4.6-22.8-11.7-22.9h-0.1c-5.9 0-9.6 8.6-21.8 42-0.6 1.6-2.3 2.4-3.8 1.8-1.6-0.6-2.4-2.3-1.8-3.8 13.2-36.4 17.1-46 27.4-46h0.1c12 0.1 14.9 14.8 17.5 27.7 1.5 7.6 3.4 16.9 6.6 16.4 3.8-0.7 7.6-9.6 10.7-16.7 4-9.3 7.7-18 14.2-18.7 7.8-0.9 12.2 9.7 16.8 20.9 2 4.9 5.8 14.1 7.8 14.5 0 0 2.7-0.5 7.5-13.3 3.1-8.2 6.1-18.8 8.5-27.3 4.8-16.8 5.7-19.7 9-19.7h0.1c3.3 0 4.3 2.6 10.6 22.7 3.6 11.6 10.2 32.7 14 37 0.9-1.5 2.3-4.7 3.3-7.4 4.1-10.1 10.3-25.3 24-30.2 1.6-0.5 3.3 0.3 3.8 1.8s-0.3 3.3-1.8 3.8c-11.2 4-16.6 17.1-20.5 26.8-2.9 7.2-4.8 12-9.1 11.6-5.7-0.4-10.1-11.3-19.6-41.6-1.6-5-3.3-10.7-4.7-14.7-1 3.2-2.2 7.5-3.3 11.5-7.2 25.5-13 43.7-21 44.8-6.3 0.9-10-7.9-14.2-18.1-2.7-6.6-7.2-17.6-10.6-17.3-3 0.3-6.6 8.9-9.3 15.1-4.2 9.8-8.1 19-15.1 20.2-0.5 0.4-1.1 0.4-1.6 0.4z" fill="#003DF0" p-id="5357"></path><path d="M539.6 512h14.9v31.9h-14.9zM571.7 490.8h14.9v53.1h-14.9zM603.9 458.9h14.9v84.9h-14.9zM636 501.4h14.9v42.5H636zM668.2 480.1h14.9v63.7h-14.9zM700.3 512h14.9v31.9h-14.9z" fill="#34D9C9" p-id="5358"></path><path d="M448.3 676.6v106.2h127.4V676.6H448.3z m90.2 58.4c0 14.7-11.9 26.5-26.5 26.5s-26.5-11.9-26.5-26.5v-10.6c0-14.7 11.9-26.5 26.5-26.5s26.5 11.9 26.5 26.5V735z" fill="#6E7782" p-id="5359"></path><path d="M624.1 804H399.9c-5.5 0-10-4.5-10-10v-1.2c0-5.5 4.5-10 10-10h224.2c5.5 0 10 4.5 10 10v1.2c0 5.5-4.5 10-10 10z" fill="#3E4959" p-id="5360"></path></svg>