<?xml version="1.0" standalone="no"?><!DOCTYPE svg PUBLIC "-//W3C//DTD SVG 1.1//EN" "http://www.w3.org/Graphics/SVG/1.1/DTD/svg11.dtd"><svg t="1606900604736" class="icon" viewBox="0 0 1024 1024" version="1.1" xmlns="http://www.w3.org/2000/svg" p-id="4101" xmlns:xlink="http://www.w3.org/1999/xlink" width="32" height="32"><defs><style type="text/css"></style></defs><path d="M192 192h640v320H192z" fill="#36D1EB" p-id="4102"></path><path d="M896 42.666667H128C81.066667 42.666667 42.666667 83.2 42.666667 130.133333v597.333334C42.666667 774.4 81.066667 810.666667 128 810.666667h213.333333v85.333333h-85.333333c-23.466667 0-42.666667 19.2-42.666667 42.666667s19.2 42.666667 42.666667 42.666666h512c23.466667 0 42.666667-19.2 42.666667-42.666666s-19.2-42.666667-42.666667-42.666667h-85.333333v-85.333333h213.333333c46.933333 0 85.333333-36.266667 85.333333-83.2v-597.333334C981.333333 83.2 942.933333 42.666667 896 42.666667zM597.333333 896h-170.666666v-85.333333h170.666666v85.333333z m298.666667-170.666667H128v-64h768v64z m0-149.333333H128V128h768v448z" fill="#0558FF" p-id="4103"></path></svg>