<?xml version="1.0" standalone="no"?><!DOCTYPE svg PUBLIC "-//W3C//DTD SVG 1.1//EN" "http://www.w3.org/Graphics/SVG/1.1/DTD/svg11.dtd"><svg t="1606901988075" class="icon" viewBox="0 0 1024 1024" version="1.1" xmlns="http://www.w3.org/2000/svg" p-id="6936" xmlns:xlink="http://www.w3.org/1999/xlink" width="32" height="32"><defs><style type="text/css"></style></defs><path d="M661.333333 42.666667v149.333333a85.333333 85.333333 0 0 0 85.333334 85.333333h149.333333v618.666667a85.333333 85.333333 0 0 1-85.333333 85.333333H213.333333a85.333333 85.333333 0 0 1-85.333333-85.333333V128a85.333333 85.333333 0 0 1 85.333333-85.333333h448zM288 192a32 32 0 0 0 0 64h234.666667a32 32 0 0 0 0-64h-234.666667z m0 170.666667a32 32 0 0 0 0 64h448a32 32 0 0 0 0-64h-448z m365.824 229.12l-131.242667 120.362666-79.189333-68.458666c-12.586667-11.669333-34.197333-11.669333-48.597333 0l-127.765334 108.544c-14.4 11.690667-14.4 33.386667-1.792 46.741333 7.189333 8.341333 17.984 11.690667 26.986667 11.690667 9.002667 0 18.005333-3.349333 25.194667-11.690667l102.570666-86.826667L499.2 782.293333a36.693333 36.693333 0 0 0 50.389333 0l158.741334-147.285333 26.410666 20.928c6.933333 6.528 13.888 3.264 15.637334-4.885333l17.365333-104.405334c1.749333-8.149333-5.205333-14.677333-13.888-13.034666l-116.437333 27.733333c-8.704 1.621333-10.453333 8.149333-3.477334 14.677333l19.904 15.786667z" fill="#1296db" p-id="6937"></path><path d="M661.333333 42.666667l234.666667 234.666666h-149.333333a85.333333 85.333333 0 0 1-85.333334-85.333333V42.666667z" fill="#1296db" p-id="6938"></path></svg>